<svg id="Capa_1" enable-background="new 0 0 512 512" height="48" viewBox="0 0 512 512" width="48" fill="#458588" xmlns="http://www.w3.org/2000/svg"><g><path d="m140 382c0-27.57-22.43-50-50-50s-50 22.43-50 50 22.43 50 50 50 50-22.429 50-50zm-50 30c-16.542 0-30-13.458-30-30s13.458-30 30-30 30 13.458 30 30-13.458 30-30 30z"/><path d="m306 382c0-27.57-22.43-50-50-50s-50 22.43-50 50 22.43 50 50 50 50-22.429 50-50zm-50 30c-16.542 0-30-13.458-30-30s13.458-30 30-30 30 13.458 30 30-13.458 30-30 30z"/><path d="m472 382c0-27.57-22.43-50-50-50s-50 22.43-50 50 22.43 50 50 50 50-22.429 50-50zm-50 30c-16.542 0-30-13.458-30-30s13.458-30 30-30 30 13.458 30 30-13.458 30-30 30z"/><path d="m442 432h-40c-25.436 0-47.742 13.641-60 33.988-12.258-20.346-34.564-33.988-60-33.988h-52c-25.436 0-47.742 13.641-60 33.988-12.258-20.346-34.564-33.988-60-33.988h-40c-38.598 0-70 31.402-70 70 0 5.522 4.477 10 10 10h201c5.523 0 10-4.478 10-10s-4.477-10-10-10h-29.996c4.646-22.794 24.85-40 48.996-40h52c24.146 0 44.349 17.206 48.996 40h-29.996c-5.523 0-10 4.478-10 10s4.477 10 10 10h201c5.523 0 10-4.478 10-10 0-38.597-31.402-70-70-70zm-420.995 60c4.646-22.794 24.85-40 48.996-40h40c24.146 0 44.349 17.206 48.996 40zm332 0c4.646-22.794 24.85-40 48.996-40h40c24.146 0 44.349 17.206 48.996 40z"/><path d="m406 230v40c0 5.522 4.477 10 10 10h40c5.523 0 10-4.478 10-10v-40c0-13.036-8.361-24.152-20-28.28v-111.72c0-6.775-5.973-9.109-6.073-9.197-.017-.007-.034-.016-.051-.023l-179.814-79.917c-2.586-1.15-5.537-1.15-8.123 0l-180 80c-3.611 1.604-5.939 5.185-5.939 9.137 0 3.951 2.327 7.533 5.938 9.138l74.062 32.917v59.156c0 3.952 2.328 7.533 5.939 9.139l100 44.44c1.292.574 2.677.861 4.061.861s2.769-.287 4.061-.861l100-44.44c3.611-1.605 5.939-5.187 5.939-9.139v-59.156l60-26.667v96.333c-11.639 4.128-20 15.243-20 28.279zm40 30h-20v-30c0-5.514 4.486-10 10-10s10 4.486 10 10zm-190-239.056 132.877 59.056h-132.877c-5.523 0-10 4.478-10 10s4.477 10 10 10h132.881l-132.881 59.057-155.379-69.056zm90 163.767-90 39.996-90-39.996v-43.768l85.939 38.195c1.292.574 2.677.861 4.061.861s2.769-.287 4.061-.861l85.939-38.194z"/><circle cx="256" cy="502" r="10"/></g></svg>
