<svg id="Icons" height="48" viewBox="0 0 74 74" width="48" fill="#FF62CE" xmlns="http://www.w3.org/2000/svg"><path d="m67.292 67.281h-60.584a4.713 4.713 0 0 1 -4.708-4.708v-43.3a4.714 4.714 0 0 1 4.708-4.709h60.584a4.714 4.714 0 0 1 4.708 4.707v43.3a4.713 4.713 0 0 1 -4.708 4.71zm-60.584-50.719a2.712 2.712 0 0 0 -2.708 2.709v43.3a2.711 2.711 0 0 0 2.708 2.708h60.584a2.711 2.711 0 0 0 2.708-2.706v-43.3a2.712 2.712 0 0 0 -2.708-2.709z"/><path d="m61.109 72h-5.809a2.174 2.174 0 0 1 -2.171-2.172v-3.547a1 1 0 0 1 1-1h8.156a1 1 0 0 1 1 1v3.547a2.174 2.174 0 0 1 -2.176 2.172zm-5.984-4.719v2.547a.172.172 0 0 0 .175.172h5.813a.172.172 0 0 0 .172-.172v-2.547z"/><path d="m18.7 72h-5.809a2.174 2.174 0 0 1 -2.172-2.172v-3.547a1 1 0 0 1 1-1h8.156a1 1 0 0 1 1 1v3.547a2.174 2.174 0 0 1 -2.175 2.172zm-5.985-4.719v2.547a.172.172 0 0 0 .172.172h5.813a.172.172 0 0 0 .171-.172v-2.547z"/><path d="m33.594 16.562h-.052a1 1 0 0 1 -.744-.393l-5-6.562a1 1 0 0 1 1.591-1.212l4.285 5.624 11-11.7a1 1 0 1 1 1.457 1.37l-11.809 12.559a1 1 0 0 1 -.728.314z"/><path d="m61.427 36.167a4.584 4.584 0 1 1 4.583-4.584 4.589 4.589 0 0 1 -4.583 4.584zm0-7.167a2.584 2.584 0 1 0 2.583 2.583 2.586 2.586 0 0 0 -2.583-2.583z"/><path d="m65.708 53.583h-9a1 1 0 0 1 0-2h9a1 1 0 0 1 0 2z"/><path d="m65.708 47.792h-9a1 1 0 0 1 0-2h9a1 1 0 0 1 0 2z"/><path d="m65.708 42h-9a1 1 0 0 1 0-2h9a1 1 0 0 1 0 2z"/><path d="m27.02 59.86h-2.91a1 1 0 0 1 0-2h2.91a1 1 0 0 1 0 2z"/><path d="m45.53 59.86h-1.54a1 1 0 1 1 0-2h1.54a5.04 5.04 0 0 0 5.03-5.04v-23.79a5.035 5.035 0 0 0 -5.03-5.03h-29.96a5.035 5.035 0 0 0 -5.03 5.03v23.79a5.04 5.04 0 0 0 5.03 5.04h1.54a1 1 0 0 1 0 2h-1.54a7.042 7.042 0 0 1 -7.03-7.04v-23.79a7.037 7.037 0 0 1 7.03-7.03h29.96a7.038 7.038 0 0 1 7.03 7.03v23.79a7.043 7.043 0 0 1 -7.03 7.04z"/><path d="m36.99 59.86h-2.97a1 1 0 1 1 0-2h2.97a1 1 0 0 1 0 2z"/></svg>
